<svg xmlns="http://www.w3.org/2000/svg" xmlns:svg="http://www.w3.org/2000/svg" xmlns:xlink="http://www.w3.org/1999/xlink" version="1.0" height="958.9452137947083pt" width="990pt" viewBox="168.7 228 998 964.9452137947083" ><defs><style type="text/css">
            @font-face {
                font-family: 'noto_regular';
                src: url('https://app.creately.com/diagram/assets/fonts/noto/noto-regular.woff') format('woff'),
                     url('https://app.creately.com/diagram/assets/fonts/noto/noto-regular.woff2') format('woff2');
                font-weight: normal;
                font-style: normal;
            }
        p {
            margin: 0;
        }
        </style></defs><defs><style>
            span{ display: inline-block; }
        </style></defs><g id="3eon9rbdh6"><g transform="translate(385 255)"><rect x="0" y="0" width="634.8526954650879" height="934.9452137947083" fill="rgba(255,255,255,1)" stroke="#000000" stroke-width="1.5" stroke-linecap="round" stroke-linejoin="round"/></g><g transform="translate(679.926347732544, 265) rotate(0, 22.5, 0)" width="45" height="18"><text text-decoration="none" x="0.5" fill="rgb(84, 84, 84)" font-size="10pt" font-family="noto_regular"  y="17">System</text><text text-decoration="none" x="44.5" fill="#4b4b4b" font-size="10pt" font-family="noto_regular"  y="17"></text></g><g transform="translate(608.426347732544, 231) rotate(0, 94, 19)" width="188" height="19"><text text-decoration="none" x="6" fill="rgb(75, 75, 75)" font-size="10pt" font-family="Lato"  y="17">Random&#160;</text><text text-decoration="none" x="60" fill="rgb(75, 75, 75)" font-size="10pt" font-family="Lato"  y="17">Password&#160;</text><text text-decoration="none" x="121" fill="rgb(75, 75, 75)" font-size="10pt" font-family="Lato"  y="17">Generator</text><text text-decoration="none" x="182" fill="#4b4b4b" font-size="10pt" font-family="noto_regular"  y="17"></text></g></g><g id="2psbrcsiur"><g transform="translate(307.4 367.65)"><ellipse cx="20.3985" cy="10.10075" rx="10.19925" ry="10.10075" fill="rgba(0,0,0,1)" stroke="#000846" stroke-width="2" stroke-linecap="round" stroke-linejoin="round"/><path d="M 20.3985,20.2015 L 20.3985,48.483599999999996 L 40.797,80.806 M 20.3985,48.483599999999996 L 0,80.806 M 2.03985,30.30225 L 38.757149999999996,30.30225" fill="none" stroke="#000846" stroke-width="2" stroke-linecap="round" stroke-linejoin="round"/><rect x="0" y="0" width="40.797" height="80.806" fill="rgba(255,255,255,0.01)" stroke="rgba(255,255,255,0.01)" stroke-width="2" stroke-linecap="round" stroke-linejoin="round"/></g><g transform="translate(283.2985, 453.45599999999996) rotate(0, 44.5, 0)" width="89" height="19"><text text-decoration="none" x="3" fill="rgb(255, 255, 255)" font-size="10pt" font-family="Lato"  y="17">Administrator</text><text text-decoration="none" x="86" fill="#4b4b4b" font-size="10pt" font-family="noto_regular"  y="17"></text></g></g><g id="cid154op77"><g transform="translate(466.95000000000005 282)"><ellipse cx="105.00071513652802" cy="30.500207245349884" rx="105.00071513652802" ry="30.500207245349884" fill="rgba(255,255,255,1)" stroke="#000000" stroke-width="2" stroke-linecap="round" stroke-linejoin="round"/></g><g transform="translate(502.95071513652806, 303.0002072453499) rotate(0, 69, 9.5)" width="138" height="19"><text text-decoration="none" x="8" fill="rgb(0, 0, 0)" font-weight="bold" font-size="12pt" font-family="Lato"  y="17">Create&#160;</text><text text-decoration="none" x="64" fill="rgb(0, 0, 0)" font-weight="bold" font-size="12pt" font-family="Lato"  y="17">Account</text><text text-decoration="none" x="130" fill="#4b4b4b" font-size="10pt" font-family="noto_regular"  y="17"></text></g></g><g id="2kow0m4iu2"><g transform="translate(479.45000000000005 361.4)"><ellipse cx="105.00071513652802" cy="30.500207245349884" rx="105.00071513652802" ry="30.500207245349884" fill="rgba(255,255,255,1)" stroke="#000000" stroke-width="2" stroke-linecap="round" stroke-linejoin="round"/></g><g transform="translate(515.9507151365281, 382.40020724534986) rotate(0, 68.5, 9.5)" width="137" height="19"><text text-decoration="none" x="6" fill="rgb(0, 0, 0)" font-weight="bold" font-size="12pt" font-family="Lato"  y="17">Modify&#160;</text><text text-decoration="none" x="65" fill="rgb(0, 0, 0)" font-weight="bold" font-size="12pt" font-family="Lato"  y="17">Account</text><text text-decoration="none" x="131" fill="#4b4b4b" font-size="10pt" font-family="noto_regular"  y="17"></text></g></g><g id="b5zx6mt3eq"><g transform="translate(477.04999999999995 431.9)"><ellipse cx="105.00071513652802" cy="30.500207245349884" rx="105.00071513652802" ry="30.500207245349884" fill="rgba(255,255,255,1)" stroke="#000000" stroke-width="2" stroke-linecap="round" stroke-linejoin="round"/></g><g transform="translate(514.050715136528, 452.90020724534986) rotate(0, 68, 9.5)" width="136" height="19"><text text-decoration="none" x="7.5" fill="rgb(0, 0, 0)" font-weight="bold" font-size="12pt" font-family="Lato"  y="17">Delete&#160;</text><text text-decoration="none" x="62.5" fill="rgb(0, 0, 0)" font-weight="bold" font-size="12pt" font-family="Lato"  y="17">Account</text><text text-decoration="none" x="128.5" fill="#4b4b4b" font-size="10pt" font-family="noto_regular"  y="17"></text></g></g><g id="upezhxzvkd"><g transform="translate(486.9 506.95000000000005)"><ellipse cx="105.00071513652802" cy="30.500207245349884" rx="105.00071513652802" ry="30.500207245349884" fill="rgba(255,255,255,1)" stroke="#000000" stroke-width="2" stroke-linecap="round" stroke-linejoin="round"/></g><g transform="translate(514.400715136528, 527.9502072453499) rotate(0, 77.5, 9.5)" width="155" height="19"><text text-decoration="none" x="11" fill="rgb(0, 0, 0)" font-weight="bold" font-size="12pt" font-family="Lato"  y="17">Create&#160;</text><text text-decoration="none" x="67" fill="rgb(0, 0, 0)" font-weight="bold" font-size="12pt" font-family="Lato"  y="17">Password</text><text text-decoration="none" x="144" fill="#4b4b4b" font-size="10pt" font-family="noto_regular"  y="17"></text></g></g><g id="2myv4c0vva"><g transform="translate(781.9 748.65)"><ellipse cx="105.00071513652802" cy="30.500207245349884" rx="105.00071513652802" ry="30.500207245349884" fill="rgba(255,255,255,1)" stroke="#000000" stroke-width="2" stroke-linecap="round" stroke-linejoin="round"/></g><g transform="translate(809.900715136528, 769.6502072453499) rotate(0, 77, 9.5)" width="154" height="19"><text text-decoration="none" x="10" fill="rgb(0, 0, 0)" font-weight="bold" font-size="12pt" font-family="Lato"  y="17">Accept&#160;</text><text text-decoration="none" x="67" fill="rgb(0, 0, 0)" font-weight="bold" font-size="12pt" font-family="Lato"  y="17">Password</text><text text-decoration="none" x="144" fill="#4b4b4b" font-size="10pt" font-family="noto_regular"  y="17"></text></g></g><g id="dmg8on7hv9"><g transform="translate(489.5 594.55)"><ellipse cx="105.00071513652802" cy="30.500207245349884" rx="105.00071513652802" ry="30.500207245349884" fill="rgba(255,255,255,1)" stroke="#000000" stroke-width="2" stroke-linecap="round" stroke-linejoin="round"/></g><g transform="translate(535.000715136528, 606.0502072453498) rotate(0, 59.5, 19)" width="119" height="38"><text text-decoration="none" x="7" fill="rgb(0, 0, 0)" font-weight="bold" font-size="12pt" font-family="Lato"  y="17">Request&#160;</text><text text-decoration="none" x="76" fill="rgb(0, 0, 0)" font-weight="bold" font-size="12pt" font-family="Lato"  y="17">New&#160;</text><text text-decoration="none" x="21" fill="rgb(0, 0, 0)" font-weight="bold" font-size="12pt" font-family="Lato"  y="39">Password</text><text text-decoration="none" x="98" fill="#4b4b4b" font-size="10pt" font-family="noto_regular"  y="39"></text></g></g><g id="2be7lbev70"><g transform="translate(441.79999999999995 674.15)"><ellipse cx="105.00071513652802" cy="30.500207245349884" rx="105.00071513652802" ry="30.500207245349884" fill="rgba(255,255,255,1)" stroke="#000000" stroke-width="2" stroke-linecap="round" stroke-linejoin="round"/></g><g transform="translate(464.30071513652797, 695.1502072453499) rotate(0, 82.5, 9.5)" width="165" height="19"><text text-decoration="none" x="12" fill="rgb(0, 0, 0)" font-weight="bold" font-size="12pt" font-family="Lato"  y="17">Access&#160;</text><text text-decoration="none" x="68" fill="rgb(0, 0, 0)" font-weight="bold" font-size="12pt" font-family="Lato"  y="17">CUNY&#160;</text><text text-decoration="none" x="117" fill="rgb(0, 0, 0)" font-weight="bold" font-size="12pt" font-family="Lato"  y="17">First</text><text text-decoration="none" x="153" fill="#4b4b4b" font-size="10pt" font-family="noto_regular"  y="17"></text></g></g><g id="1fw32vvo9s"><g transform="translate(666.85 1015.3)"><ellipse cx="105.00071513652802" cy="30.500207245349884" rx="105.00071513652802" ry="30.500207245349884" fill="rgba(255,255,255,1)" stroke="#000000" stroke-width="2" stroke-linecap="round" stroke-linejoin="round"/></g><g transform="translate(727.850715136528, 1036.3002072453498) rotate(0, 44, 9.5)" width="88" height="19"><text text-decoration="none" x="5.5" fill="rgb(0, 0, 0)" font-weight="bold" font-size="12pt" font-family="Lato"  y="17">Password</text><text text-decoration="none" x="82.5" fill="#4b4b4b" font-size="10pt" font-family="noto_regular"  y="17"></text></g></g><g id="1wquzcy8pn"><g><path d="M 347.4,397.65 L 466.95,312" fill="none" stroke="#000000" stroke-width="1.5" stroke-linecap="round" stroke-linejoin="round"/><path d="M 466.95,312 L 456.53248165259174,312.3901002577427 L 463.23002868720704,321.73851529555077 Z" fill="rgb(0,0,0)" stroke="#000000" stroke-width="1.5" stroke-linecap="round" stroke-linejoin="round"/></g></g><g id="4xf99tsa9b"><g><path d="M 347.4,397.65 L 479.45,391.4" fill="none" stroke="#000000" stroke-width="1.5" stroke-linecap="round" stroke-linejoin="round"/><path d="M 479.45,391.4 L 470.4922250339302,386.06753955599 L 471.0359177903411,397.55468011344055 Z" fill="rgb(0,0,0)" stroke="#000000" stroke-width="1.5" stroke-linecap="round" stroke-linejoin="round"/></g></g><g id="2777dtsnni"><g><path d="M 347.4,397.65 L 477.05,461.9" fill="none" stroke="#000000" stroke-width="1.5" stroke-linecap="round" stroke-linejoin="round"/><path d="M 477.05,461.9 L 471.8117817189383,452.8867910281837 L 466.70541704312575,463.1909183467689 Z" fill="rgb(0,0,0)" stroke="#000000" stroke-width="1.5" stroke-linecap="round" stroke-linejoin="round"/></g></g><g id="195udyoqbc"><g transform="translate(285 640)"><ellipse cx="20.3985" cy="10.10075" rx="10.19925" ry="10.10075" fill="rgba(0,0,0,1)" stroke="#000846" stroke-width="2" stroke-linecap="round" stroke-linejoin="round"/><path d="M 20.3985,20.2015 L 20.3985,48.483599999999996 L 40.797,80.806 M 20.3985,48.483599999999996 L 0,80.806 M 2.03985,30.30225 L 38.757149999999996,30.30225" fill="none" stroke="#000846" stroke-width="2" stroke-linecap="round" stroke-linejoin="round"/><rect x="0" y="0" width="40.797" height="80.806" fill="rgba(255,255,255,0.01)" stroke="rgba(255,255,255,0.01)" stroke-width="2" stroke-linecap="round" stroke-linejoin="round"/></g><g transform="translate(305.3985, 725.806) rotate(0, 0, 0)" width="0" height="19"><text text-decoration="none" x="0" fill="rgb(255, 255, 255)" font-size="10pt" font-family="Lato"  y="17">&#xAD;</text><text text-decoration="none" x="0" fill="#4b4b4b" font-size="10pt" font-family="noto_regular"  y="17"></text></g></g><g id="1u0i4omwy8"><g transform="translate(235 820)"><ellipse cx="20.3985" cy="10.10075" rx="10.19925" ry="10.10075" fill="rgba(0,0,0,1)" stroke="#000846" stroke-width="2" stroke-linecap="round" stroke-linejoin="round"/><path d="M 20.3985,20.2015 L 20.3985,48.483599999999996 L 40.797,80.806 M 20.3985,48.483599999999996 L 0,80.806 M 2.03985,30.30225 L 38.757149999999996,30.30225" fill="none" stroke="#000846" stroke-width="2" stroke-linecap="round" stroke-linejoin="round"/><rect x="0" y="0" width="40.797" height="80.806" fill="rgba(255,255,255,0.01)" stroke="rgba(255,255,255,0.01)" stroke-width="2" stroke-linecap="round" stroke-linejoin="round"/></g><g transform="translate(224.3985, 905.806) rotate(0, 31, 0)" width="62" height="19"><text text-decoration="none" x="1" fill="rgb(255, 255, 255)" font-size="10pt" font-family="Lato"  y="17">Instructor</text><text text-decoration="none" x="61" fill="#4b4b4b" font-size="10pt" font-family="noto_regular"  y="17"></text></g></g><g id="zgtnyp63dv"><g transform="translate(330 820)"><ellipse cx="20.3985" cy="10.10075" rx="10.19925" ry="10.10075" fill="rgba(0,0,0,1)" stroke="#000846" stroke-width="2" stroke-linecap="round" stroke-linejoin="round"/><path d="M 20.3985,20.2015 L 20.3985,48.483599999999996 L 40.797,80.806 M 20.3985,48.483599999999996 L 0,80.806 M 2.03985,30.30225 L 38.757149999999996,30.30225" fill="none" stroke="#000846" stroke-width="2" stroke-linecap="round" stroke-linejoin="round"/><rect x="0" y="0" width="40.797" height="80.806" fill="rgba(255,255,255,0.01)" stroke="rgba(255,255,255,0.01)" stroke-width="2" stroke-linecap="round" stroke-linejoin="round"/></g><g transform="translate(325.3985, 905.806) rotate(0, 25, 0)" width="50" height="19"><text text-decoration="none" x="1" fill="rgb(255, 255, 255)" font-size="10pt" font-family="Lato"  y="17">Student</text><text text-decoration="none" x="49" fill="#4b4b4b" font-size="10pt" font-family="noto_regular"  y="17"></text></g></g><g id="2hf60bxfa2"><g><path d="M 255,785 L 350,785" fill="none" stroke="#000000" stroke-width="1.5" stroke-linecap="round" stroke-linejoin="round"/></g></g><g id="21ek474d0l"><g><path d="M 255,820 L 255,785" fill="none" stroke="#000000" stroke-width="1.5" stroke-linecap="round" stroke-linejoin="round"/></g></g><g id="1jhl13nfbd"><g><path d="M 351,819 L 350,785" fill="none" stroke="#000000" stroke-width="1.5" stroke-linecap="round" stroke-linejoin="round"/></g></g><g id="b8tzf4pazs"><g><path d="M 303,784 L 305,730" fill="none" stroke="#000000" stroke-width="1.5" stroke-linecap="round" stroke-linejoin="round"/><path d="M 305,730 L 298.9320991796682,738.4768771587358 L 310.424219767986,738.9025112545994 Z" fill="rgb(0,0,0)" stroke="#000000" stroke-width="1.5" stroke-linecap="round" stroke-linejoin="round"/></g></g><g id="9icp2pch1b"><g transform="translate(761.8 524.15)"><ellipse cx="105.00071513652802" cy="30.500207245349884" rx="105.00071513652802" ry="30.500207245349884" fill="rgba(255,255,255,1)" stroke="#000000" stroke-width="2" stroke-linecap="round" stroke-linejoin="round"/></g><g transform="translate(792.300715136528, 535.6502072453499) rotate(0, 74.5, 19)" width="149" height="38"><text text-decoration="none" x="10" fill="rgb(0, 0, 0)" font-weight="bold" font-size="12pt" font-family="Lato"  y="17">Chose&#160;</text><text text-decoration="none" x="62" fill="rgb(0, 0, 0)" font-weight="bold" font-size="12pt" font-family="Lato"  y="17">Password&#160;</text><text text-decoration="none" x="44" fill="rgb(0, 0, 0)" font-weight="bold" font-size="12pt" font-family="Lato"  y="39">Pattern</text><text text-decoration="none" x="105" fill="#4b4b4b" font-size="10pt" font-family="noto_regular"  y="39"></text></g></g><g id="1vycu5myvl"><g transform="translate(471.79999999999995 909.15)"><ellipse cx="105.00071513652802" cy="30.500207245349884" rx="105.00071513652802" ry="30.500207245349884" fill="rgba(255,255,255,1)" stroke="#000000" stroke-width="2" stroke-linecap="round" stroke-linejoin="round"/></g><g transform="translate(512.800715136528, 930.1502072453499) rotate(0, 64, 9.5)" width="128" height="19"><text text-decoration="none" x="10" fill="rgb(0, 0, 0)" font-weight="bold" font-size="12pt" font-family="Lato"  y="17">Email&#160;</text><text text-decoration="none" x="59" fill="rgb(0, 0, 0)" font-weight="bold" font-size="12pt" font-family="Lato"  y="17">Subject&#160;</text><text text-decoration="none" x="122" fill="#4b4b4b" font-size="10pt" font-family="noto_regular"  y="17"></text></g></g><g id="2fgs0w89wi"><mask id="c455b" x="683.9" y="516.15" width="145.89999999999998" height="33.80000000000007" maskUnits="userSpaceOnUse"><rect x="683.9" y="516.15" width="145.89999999999998" height="33.80000000000007" fill="white" /><rect x="708.3499999999999" y="520.55" width="97" height="25" fill="black" /></mask><g mask="url(#c455b)"><path d="M 696.9,536.95 L 816.8,529.15" fill="none" stroke="#000000" stroke-width="1.5" stroke-linecap="round" stroke-linejoin="round" stroke-dasharray="5 5"/><path d="M 809.3975700639196,523.0836566323748 Q 813.310871791938,529.3769824855954 816.8,529.15 M 810.2459171038322,536.1242733100066 Q 813.310871791938,529.3769824855954 816.8,529.15 M 816.8,529.15 Z" fill="none" stroke="#000000" stroke-width="1.5" stroke-linecap="round" stroke-linejoin="round"/></g><g transform="translate(711.3499999999999, 523.55)" width="91" height="19"><text text-decoration="none" x="10" fill="rgb(75, 75, 75)" font-size="10pt" font-family="Lato"  y="17">&#x3C;&#x3C;include&#x3E;&#x3E;</text><text text-decoration="none" x="81" fill="#4b4b4b" font-size="10pt" font-family="noto_regular"  y="17"></text></g></g><g id="4ktkb4frot"><mask id="50d05" x="686.5" y="566.15" width="143.29999999999995" height="71.39999999999998" maskUnits="userSpaceOnUse"><rect x="686.5" y="566.15" width="143.29999999999995" height="71.39999999999998" fill="white" /><rect x="709.65" y="589.3499999999999" width="97" height="25" fill="black" /></mask><g mask="url(#50d05)"><path d="M 699.5,624.55 L 816.8,579.15" fill="none" stroke="#000000" stroke-width="1.5" stroke-linecap="round" stroke-linejoin="round" stroke-dasharray="5 5"/><path d="M 807.9199472167526,575.5805247753698 Q 813.5392120101116,580.4120611657369 816.8,579.15 M 812.636900823694,587.7677198875775 Q 813.5392120101116,580.4120611657369 816.8,579.15 M 816.8,579.15 Z" fill="none" stroke="#000000" stroke-width="1.5" stroke-linecap="round" stroke-linejoin="round"/></g><g transform="translate(712.65, 592.3499999999999)" width="91" height="19"><text text-decoration="none" x="10" fill="rgb(75, 75, 75)" font-size="10pt" font-family="Lato"  y="17">&#x3C;&#x3C;include&#x3E;&#x3E;</text><text text-decoration="none" x="81" fill="#4b4b4b" font-size="10pt" font-family="noto_regular"  y="17"></text></g></g><g id="3qpacilj6z"><g transform="translate(232 704)"><rect x="0" y="0" width="150" height="37" fill="rgba(255,255,255,0.01)" stroke="rgba(255,255,255,0.01)" stroke-width="NaN" stroke-linecap="round" stroke-linejoin="round"/></g><g transform="translate(292, 713) rotate(0, 15, 9.5)" width="30" height="19"><text text-decoration="none" x="1.5" fill="rgb(75, 75, 75)" font-size="10pt" font-family="Lato"  y="17">User</text><text text-decoration="none" x="28.5" fill="#4b4b4b" font-size="10pt" font-family="noto_regular"  y="17"></text></g></g><g id="be37xv574y"><g><path d="M 325,670 L 486.9,536.95" fill="none" stroke="#000000" stroke-width="1.5" stroke-linecap="round" stroke-linejoin="round"/><path d="M 486.9,536.95 L 476.53113080208306,538.0286186935932 L 483.83262346514744,546.913336184387 Z" fill="rgb(0,0,0)" stroke="#000000" stroke-width="1.5" stroke-linecap="round" stroke-linejoin="round"/></g></g><g id="3iv2dbf8g2"><g><path d="M 325,670 L 489.5,624.55" fill="none" stroke="#000000" stroke-width="1.5" stroke-linecap="round" stroke-linejoin="round"/><path d="M 489.5,624.55 L 479.5870746226669,621.3234264004824 L 482.6496843632687,632.4081195210325 Z" fill="rgb(0,0,0)" stroke="#000000" stroke-width="1.5" stroke-linecap="round" stroke-linejoin="round"/></g></g><g id="1ww3bks7gx"><g transform="translate(780 815)"><ellipse cx="105.00071513652802" cy="30.500207245349884" rx="105.00071513652802" ry="30.500207245349884" fill="rgba(255,255,255,1)" stroke="#000000" stroke-width="2" stroke-linecap="round" stroke-linejoin="round"/></g><g transform="translate(805.500715136528, 836.0002072453499) rotate(0, 79.5, 9.5)" width="159" height="19"><text text-decoration="none" x="9.5" fill="rgb(0, 0, 0)" font-weight="bold" font-size="12pt" font-family="Lato"  y="17">Decline&#160;</text><text text-decoration="none" x="72.5" fill="rgb(0, 0, 0)" font-weight="bold" font-size="12pt" font-family="Lato"  y="17">Password</text><text text-decoration="none" x="149.5" fill="#4b4b4b" font-size="10pt" font-family="noto_regular"  y="17"></text></g></g><g id="5hykfkrqqz"><g transform="translate(781.8 674.15)"><ellipse cx="105.00071513652802" cy="30.500207245349884" rx="105.00071513652802" ry="30.500207245349884" fill="rgba(255,255,255,1)" stroke="#000000" stroke-width="2" stroke-linecap="round" stroke-linejoin="round"/></g><g transform="translate(838.300715136528, 695.1502072453499) rotate(0, 48.5, 9.5)" width="97" height="19"><text text-decoration="none" x="5" fill="rgb(0, 0, 0)" font-weight="bold" font-size="12pt" font-family="Lato"  y="17">Direct&#160;</text><text text-decoration="none" x="57" fill="rgb(0, 0, 0)" font-weight="bold" font-size="12pt" font-family="Lato"  y="17">Link</text><text text-decoration="none" x="92" fill="#4b4b4b" font-size="10pt" font-family="noto_regular"  y="17"></text></g></g><g id="29rv4nm0si"><g><path d="M 325,670 L 441.8,704.15" fill="none" stroke="#000000" stroke-width="1.5" stroke-linecap="round" stroke-linejoin="round"/><path d="M 441.8,704.15 L 435.0674049069723,696.1907896093256 L 431.8401478181811,707.228670369818 Z" fill="rgb(0,0,0)" stroke="#000000" stroke-width="1.5" stroke-linecap="round" stroke-linejoin="round"/></g></g><g id="1ldf0om4dt"><mask id="366c6" x="638.8" y="691.15" width="156" height="26" maskUnits="userSpaceOnUse"><rect x="638.8" y="691.15" width="156" height="26" fill="white" /><rect x="668.3" y="691.65" width="97" height="25" fill="black" /></mask><g mask="url(#366c6)"><path d="M 651.8,704.15 L 781.8,704.15" fill="none" stroke="#000000" stroke-width="1.5" stroke-linecap="round" stroke-linejoin="round" stroke-dasharray="5 5"/><path d="M 774.8069930069929,697.6159090909091 Q 778.3034965034965,704.15 781.8,704.15 M 774.8069930069929,710.6840909090909 Q 778.3034965034965,704.15 781.8,704.15 M 781.8,704.15 Z" fill="none" stroke="#000000" stroke-width="1.5" stroke-linecap="round" stroke-linejoin="round"/></g><g transform="translate(671.3, 694.65)" width="91" height="19"><text text-decoration="none" x="10" fill="rgb(75, 75, 75)" font-size="10pt" font-family="Lato"  y="17">&#x3C;&#x3C;include&#x3E;&#x3E;</text><text text-decoration="none" x="81" fill="#4b4b4b" font-size="10pt" font-family="noto_regular"  y="17"></text></g></g><g id="3xduwzeolm"><g><path d="M 325,670 L 471.8,939.15" fill="none" stroke="#000000" stroke-width="1.5" stroke-linecap="round" stroke-linejoin="round"/><path d="M 471.8,939.15 L 472.68423837265345,928.7627487163347 L 462.5882959354521,934.2692854050999 Z" fill="rgb(0,0,0)" stroke="#000000" stroke-width="1.5" stroke-linecap="round" stroke-linejoin="round"/></g></g><g id="2aenow1a10"><g transform="translate(416.79999999999995 1014.1500000000001)"><ellipse cx="105.00071513652802" cy="30.500207245349884" rx="105.00071513652802" ry="30.500207245349884" fill="rgba(255,255,255,1)" stroke="#000000" stroke-width="2" stroke-linecap="round" stroke-linejoin="round"/></g><g transform="translate(473.30071513652797, 1035.15020724535) rotate(0, 48.5, 9.5)" width="97" height="19"><text text-decoration="none" x="5" fill="rgb(0, 0, 0)" font-weight="bold" font-size="12pt" font-family="Lato"  y="17">Direct&#160;</text><text text-decoration="none" x="57" fill="rgb(0, 0, 0)" font-weight="bold" font-size="12pt" font-family="Lato"  y="17">Link</text><text text-decoration="none" x="92" fill="#4b4b4b" font-size="10pt" font-family="noto_regular"  y="17"></text></g></g><g id="1qrpiup5ge"><mask id="0169c" x="418.8" y="941.15" width="81" height="101.00000000000011" maskUnits="userSpaceOnUse"><rect x="418.8" y="941.15" width="81" height="101.00000000000011" fill="white" /><rect x="410.8" y="979.1500000000001" width="97" height="25" fill="black" /></mask><g mask="url(#0169c)"><path d="M 486.8,954.15 L 431.8,1029.15" fill="none" stroke="#000000" stroke-width="1.5" stroke-linecap="round" stroke-linejoin="round" stroke-dasharray="5 5"/><path d="M 441.20453378762375,1027.3748281632606 Q 433.86770511757874,1026.3304021123927 431.8,1029.15 M 430.66628668269124,1019.6467802863101 Q 433.86770511757874,1026.3304021123927 431.8,1029.15 M 431.8,1029.15 Z" fill="none" stroke="#000000" stroke-width="1.5" stroke-linecap="round" stroke-linejoin="round"/></g><g transform="translate(413.8, 982.1500000000001)" width="91" height="19"><text text-decoration="none" x="10" fill="rgb(75, 75, 75)" font-size="10pt" font-family="Lato"  y="17">&#x3C;&#x3C;include&#x3E;&#x3E;</text><text text-decoration="none" x="81" fill="#4b4b4b" font-size="10pt" font-family="noto_regular"  y="17"></text></g></g><g id="2w0fy6ucjn"><g transform="translate(436.79999999999995 809.15)"><ellipse cx="105.00071513652802" cy="30.500207245349884" rx="105.00071513652802" ry="30.500207245349884" fill="rgba(255,255,255,1)" stroke="#000000" stroke-width="2" stroke-linecap="round" stroke-linejoin="round"/></g><g transform="translate(477.30071513652797, 830.1502072453499) rotate(0, 64.5, 9.5)" width="129" height="19"><text text-decoration="none" x="8" fill="rgb(0, 0, 0)" font-weight="bold" font-size="12pt" font-family="Lato"  y="17">Provide&#160;</text><text text-decoration="none" x="72" fill="rgb(0, 0, 0)" font-weight="bold" font-size="12pt" font-family="Lato"  y="17">Email&#160;</text><text text-decoration="none" x="121" fill="#4b4b4b" font-size="10pt" font-family="noto_regular"  y="17"></text></g></g><g id="2lr7vsmhvj"><g><path d="M 325,670 L 436.8,839.15" fill="none" stroke="#000000" stroke-width="1.5" stroke-linecap="round" stroke-linejoin="round"/><path d="M 436.8,839.15 L 436.8021631014546,828.7251804787483 L 427.2083551588474,835.0662252791236 Z" fill="rgb(0,0,0)" stroke="#000000" stroke-width="1.5" stroke-linecap="round" stroke-linejoin="round"/></g></g><g id="5zs3qra9vb"><mask id="f69aa" x="668.8" y="926.15" width="116.05000000000007" height="102.14999999999998" maskUnits="userSpaceOnUse"><rect x="668.8" y="926.15" width="116.05000000000007" height="102.14999999999998" fill="white" /><rect x="678.325" y="964.7249999999999" width="97" height="25" fill="black" /></mask><g mask="url(#f69aa)"><path d="M 681.8,939.15 L 771.85,1015.3" fill="none" stroke="#000000" stroke-width="1.5" stroke-linecap="round" stroke-linejoin="round" stroke-dasharray="5 5"/><path d="M 770.729439996579,1005.795220355461 Q 769.1801425416453,1013.0422582403806 771.85,1015.3 M 762.291130170002,1015.7738126060619 Q 769.1801425416453,1013.0422582403806 771.85,1015.3 M 771.85,1015.3 Z" fill="none" stroke="#000000" stroke-width="1.5" stroke-linecap="round" stroke-linejoin="round"/></g><g transform="translate(681.325, 967.7249999999999)" width="91" height="19"><text text-decoration="none" x="10" fill="rgb(75, 75, 75)" font-size="10pt" font-family="Lato"  y="17">&#x3C;&#x3C;include&#x3E;&#x3E;</text><text text-decoration="none" x="81" fill="#4b4b4b" font-size="10pt" font-family="noto_regular"  y="17"></text></g></g><g id="1s7k1ulozi"><g transform="translate(1065 890)"><ellipse cx="20.3985" cy="10.10075" rx="10.19925" ry="10.10075" fill="rgba(0,0,0,1)" stroke="#000846" stroke-width="2" stroke-linecap="round" stroke-linejoin="round"/><path d="M 20.3985,20.2015 L 20.3985,48.483599999999996 L 40.797,80.806 M 20.3985,48.483599999999996 L 0,80.806 M 2.03985,30.30225 L 38.757149999999996,30.30225" fill="none" stroke="#000846" stroke-width="2" stroke-linecap="round" stroke-linejoin="round"/><rect x="0" y="0" width="40.797" height="80.806" fill="rgba(255,255,255,0.01)" stroke="rgba(255,255,255,0.01)" stroke-width="2" stroke-linecap="round" stroke-linejoin="round"/></g><g transform="translate(1060.3985, 975.806) rotate(0, 25, 0)" width="50" height="19"><text text-decoration="none" x="1" fill="rgb(255, 255, 255)" font-size="10pt" font-family="Lato"  y="17">Student</text><text text-decoration="none" x="49" fill="#4b4b4b" font-size="10pt" font-family="noto_regular"  y="17"></text></g></g><g id="1dlheuvs6i"><g><path d="M 1065,920 L 991.9,778.65" fill="none" stroke="#000000" stroke-width="1.5" stroke-linecap="round" stroke-linejoin="round"/><path d="M 991.9,778.65 L 990.7870322081869,789.0152385126472 L 1001.001890990044,783.732563047817 Z" fill="rgb(0,0,0)" stroke="#000000" stroke-width="1.5" stroke-linecap="round" stroke-linejoin="round"/></g></g><g id="c3lr7fjhb5"><g><path d="M 1065,920 L 990,845" fill="none" stroke="#000000" stroke-width="1.5" stroke-linecap="round" stroke-linejoin="round"/><path d="M 990,845 L 992.0828906271909,855.214618610836 L 1000.214618610836,847.0828906271909 Z" fill="rgb(0,0,0)" stroke="#000000" stroke-width="1.5" stroke-linecap="round" stroke-linejoin="round"/></g></g><g id="d50fsx3c2v"><g transform="translate(786.85 880.3)"><ellipse cx="105.00071513652802" cy="30.500207245349884" rx="105.00071513652802" ry="30.500207245349884" fill="rgba(255,255,255,1)" stroke="#000000" stroke-width="2" stroke-linecap="round" stroke-linejoin="round"/></g><g transform="translate(814.850715136528, 901.3002072453498) rotate(0, 77, 9.5)" width="154" height="19"><text text-decoration="none" x="9" fill="rgb(0, 0, 0)" font-weight="bold" font-size="12pt" font-family="Lato"  y="17">Modify&#160;</text><text text-decoration="none" x="68" fill="rgb(0, 0, 0)" font-weight="bold" font-size="12pt" font-family="Lato"  y="17">Password</text><text text-decoration="none" x="145" fill="#4b4b4b" font-size="10pt" font-family="noto_regular"  y="17"></text></g></g><g id="17jpgnrdop"><g><path d="M 1065,920 L 996.85,910.3" fill="none" stroke="#000000" stroke-width="1.5" stroke-linecap="round" stroke-linejoin="round"/><path d="M 996.85,910.3 L 1004.6486378324971,917.2179559616424 L 1006.2691360561755,905.8327029777577 Z" fill="rgb(0,0,0)" stroke="#000000" stroke-width="1.5" stroke-linecap="round" stroke-linejoin="round"/></g></g><g id="5z6eu1md7k"><g><path d="M 681.8,939.15 L 1070,965" fill="none" stroke="#000000" stroke-width="1.5" stroke-linecap="round" stroke-linejoin="round"/><path d="M 1070,965 L 1061.7056057401526,958.6849473009412 L 1060.9415199510397,970.1595354376403 Z" fill="rgb(0,0,0)" stroke="#000000" stroke-width="1.5" stroke-linecap="round" stroke-linejoin="round"/></g></g><g id="y4wf1g9vv4"><g transform="translate(173.7 896.8)"><rect x="0" y="0" width="150" height="37" fill="rgba(255,255,255,0.01)" stroke="rgba(255,255,255,0.01)" stroke-width="NaN" stroke-linecap="round" stroke-linejoin="round"/></g><g transform="translate(217.7, 905.8) rotate(0, 31, 9.5)" width="62" height="19"><text text-decoration="none" x="1" fill="rgb(75, 75, 75)" font-size="10pt" font-family="Lato"  y="17">Instructor</text><text text-decoration="none" x="61" fill="#4b4b4b" font-size="10pt" font-family="noto_regular"  y="17"></text></g></g><g id="1norf2opnx"><g transform="translate(268.7 896.8)"><rect x="0" y="0" width="150" height="37" fill="rgba(255,255,255,0.01)" stroke="rgba(255,255,255,0.01)" stroke-width="NaN" stroke-linecap="round" stroke-linejoin="round"/></g><g transform="translate(318.7, 905.8) rotate(0, 25, 9.5)" width="50" height="19"><text text-decoration="none" x="1" fill="rgb(75, 75, 75)" font-size="10pt" font-family="Lato"  y="17">Student</text><text text-decoration="none" x="49" fill="#4b4b4b" font-size="10pt" font-family="noto_regular"  y="17"></text></g></g><g id="3vop30nzdc"><g transform="translate(1013.7 966.8)"><rect x="0" y="0" width="150" height="37" fill="rgba(255,255,255,0.01)" stroke="rgba(255,255,255,0.01)" stroke-width="NaN" stroke-linecap="round" stroke-linejoin="round"/></g><g transform="translate(1063.7, 975.8) rotate(0, 25, 9.5)" width="50" height="19"><text text-decoration="none" x="1" fill="rgb(75, 75, 75)" font-size="10pt" font-family="Lato"  y="17">Student</text><text text-decoration="none" x="49" fill="#4b4b4b" font-size="10pt" font-family="noto_regular"  y="17"></text></g></g><g id="10puoxydyk"><g transform="translate(253 443)"><rect x="0" y="0" width="150" height="37" fill="rgba(255,255,255,0.01)" stroke="rgba(255,255,255,0.01)" stroke-width="NaN" stroke-linecap="round" stroke-linejoin="round"/></g><g transform="translate(307, 452) rotate(0, 21, 9.5)" width="42" height="19"><text text-decoration="none" x="1.5" fill="rgb(75, 75, 75)" font-size="10pt" font-family="Lato"  y="17">Admin</text><text text-decoration="none" x="40.5" fill="#4b4b4b" font-size="10pt" font-family="noto_regular"  y="17"></text></g></g><g id="9g1f8c0klz"><g transform="translate(501.04999999999995 251.14999999999998)"><rect x="0" y="0" width="150" height="37" fill="rgba(255,255,255,0.01)" stroke="rgba(255,255,255,0.01)" stroke-width="NaN" stroke-linecap="round" stroke-linejoin="round"/></g><g transform="translate(556.05, 260.15) rotate(0, 20, 9.5)" width="40" height="19"><text text-decoration="none" x="2.5" fill="rgb(75, 75, 75)" font-size="10pt" font-family="Lato"  y="17">UC1-1</text><text text-decoration="none" x="37.5" fill="#4b4b4b" font-size="10pt" font-family="noto_regular"  y="17"></text></g></g><g id="1rrxdpy7w7"><g transform="translate(611.05 346.15)"><rect x="0" y="0" width="150" height="37" fill="rgba(255,255,255,0.01)" stroke="rgba(255,255,255,0.01)" stroke-width="NaN" stroke-linecap="round" stroke-linejoin="round"/></g><g transform="translate(666.05, 355.15) rotate(0, 20, 9.5)" width="40" height="19"><text text-decoration="none" x="2.5" fill="rgb(75, 75, 75)" font-size="10pt" font-family="Lato"  y="17">UC1-2</text><text text-decoration="none" x="37.5" fill="#4b4b4b" font-size="10pt" font-family="noto_regular"  y="17"></text></g></g><g id="97hflyw5ii"><g transform="translate(601.05 411.15)"><rect x="0" y="0" width="150" height="37" fill="rgba(255,255,255,0.01)" stroke="rgba(255,255,255,0.01)" stroke-width="NaN" stroke-linecap="round" stroke-linejoin="round"/></g><g transform="translate(656.05, 420.15) rotate(0, 20, 9.5)" width="40" height="19"><text text-decoration="none" x="2.5" fill="rgb(75, 75, 75)" font-size="10pt" font-family="Lato"  y="17">UC1-3</text><text text-decoration="none" x="37.5" fill="#4b4b4b" font-size="10pt" font-family="noto_regular"  y="17"></text></g></g><g id="2mk8jse6k6"><g transform="translate(606.05 486.15)"><rect x="0" y="0" width="150" height="37" fill="rgba(255,255,255,0.01)" stroke="rgba(255,255,255,0.01)" stroke-width="NaN" stroke-linecap="round" stroke-linejoin="round"/></g><g transform="translate(667.55, 495.15) rotate(0, 13.5, 9.5)" width="27" height="19"><text text-decoration="none" x="1.5" fill="rgb(75, 75, 75)" font-size="10pt" font-family="Lato"  y="17">UC2</text><text text-decoration="none" x="25.5" fill="#4b4b4b" font-size="10pt" font-family="noto_regular"  y="17"></text></g></g><g id="2jpenrbchq"><g transform="translate(591.05 571.15)"><rect x="0" y="0" width="150" height="37" fill="rgba(255,255,255,0.01)" stroke="rgba(255,255,255,0.01)" stroke-width="NaN" stroke-linecap="round" stroke-linejoin="round"/></g><g transform="translate(652.55, 580.15) rotate(0, 13.5, 9.5)" width="27" height="19"><text text-decoration="none" x="1.5" fill="rgb(75, 75, 75)" font-size="10pt" font-family="Lato"  y="17">UC3</text><text text-decoration="none" x="25.5" fill="#4b4b4b" font-size="10pt" font-family="noto_regular"  y="17"></text></g></g><g id="1t08dyut4a"><g transform="translate(566.05 656.15)"><rect x="0" y="0" width="150" height="37" fill="rgba(255,255,255,0.01)" stroke="rgba(255,255,255,0.01)" stroke-width="NaN" stroke-linecap="round" stroke-linejoin="round"/></g><g transform="translate(627.55, 665.15) rotate(0, 13.5, 9.5)" width="27" height="19"><text text-decoration="none" x="1.5" fill="rgb(75, 75, 75)" font-size="10pt" font-family="Lato"  y="17">UC4</text><text text-decoration="none" x="25.5" fill="#4b4b4b" font-size="10pt" font-family="noto_regular"  y="17"></text></g></g><g id="25nwcs4y1x"><g transform="translate(531.05 781.15)"><rect x="0" y="0" width="150" height="37" fill="rgba(255,255,255,0.01)" stroke="rgba(255,255,255,0.01)" stroke-width="NaN" stroke-linecap="round" stroke-linejoin="round"/></g><g transform="translate(592.55, 790.15) rotate(0, 13.5, 9.5)" width="27" height="19"><text text-decoration="none" x="1.5" fill="rgb(75, 75, 75)" font-size="10pt" font-family="Lato"  y="17">UC5</text><text text-decoration="none" x="25.5" fill="#4b4b4b" font-size="10pt" font-family="noto_regular"  y="17"></text></g></g><g id="2o4p0fsjj2"><g transform="translate(541.05 881.15)"><rect x="0" y="0" width="150" height="37" fill="rgba(255,255,255,0.01)" stroke="rgba(255,255,255,0.01)" stroke-width="NaN" stroke-linecap="round" stroke-linejoin="round"/></g><g transform="translate(602.55, 890.15) rotate(0, 13.5, 9.5)" width="27" height="19"><text text-decoration="none" x="1.5" fill="rgb(75, 75, 75)" font-size="10pt" font-family="Lato"  y="17">UC6</text><text text-decoration="none" x="25.5" fill="#4b4b4b" font-size="10pt" font-family="noto_regular"  y="17"></text></g></g></svg>